<svg width="1481" height="479" viewBox="0 0 1481 479" fill="none" xmlns="http://www.w3.org/2000/svg">
<rect x="1" y="1.14185" width="1479" height="477" rx="4.5" stroke="#9747FF" stroke-dasharray="10 5"/>
<rect width="1440" height="209" transform="translate(20.5 20.6418)" fill="black"/>
<path d="M691.144 106.74L684.628 113.404V122.754H679.5V86.6418H684.628V106.848L704.071 86.6418H709.947L694.67 102.871L711.015 122.754H705.032L691.144 106.74Z" fill="white"/>
<path d="M748.405 119.853L750.435 115.983C752.785 117.596 756.418 118.778 759.943 118.778C764.537 118.778 766.353 117.381 766.353 115.016C766.353 108.89 749.153 114.156 749.153 103.301C749.153 98.357 753.533 95.1327 760.477 95.1327C764.003 95.1327 768.062 96.1 770.412 97.6047L768.276 101.474C765.819 99.8617 763.148 99.3243 760.477 99.3243C756.204 99.3243 754.067 100.936 754.067 103.086C754.067 109.535 771.267 104.268 771.267 114.909C771.267 119.853 766.78 122.969 759.516 122.969C755.136 123.077 750.649 121.68 748.405 119.853Z" fill="white"/>
<path d="M801.5 106.203V122.754H796.799V119.1C795.197 121.572 792.099 122.969 787.826 122.969C781.63 122.969 777.784 119.637 777.784 114.908C777.784 110.502 780.561 106.955 788.68 106.955H796.479V105.988C796.479 101.796 794.022 99.4316 789.215 99.4316C786.01 99.4316 782.698 100.614 780.561 102.334L778.531 98.5718C781.309 96.3148 785.369 95.025 789.749 95.025C797.334 95.1325 801.5 98.7867 801.5 106.203ZM796.586 114.371V110.502H789.001C784.087 110.502 782.698 112.436 782.698 114.693C782.698 117.38 784.941 119.1 788.68 119.1C792.419 119.208 795.411 117.595 796.586 114.371Z" fill="white"/>
<path d="M732.595 115.554V122.862L735.693 121.035V113.727L732.595 115.554Z" fill="white"/>
<path d="M741.141 106.633L728.428 99.2168L721.377 95.1327L714.433 107.278L714.54 118.67L727.146 126.086L728.428 125.334V114.586L734.09 104.591L739.859 107.923V118.67L741.141 117.918V106.633Z" fill="white"/>
<path d="M558.877 192.714C563.653 192.714 567.373 188.97 567.373 184.194C567.373 179.418 563.749 175.77 558.925 175.77C554.101 175.77 550.429 179.514 550.429 184.242C550.429 188.97 554.101 192.714 558.877 192.714ZM558.877 191.634C554.701 191.634 551.557 188.37 551.557 184.242C551.557 180.114 554.701 176.85 558.925 176.85C563.149 176.85 566.245 180.018 566.245 184.194C566.245 188.37 563.053 191.634 558.877 191.634ZM559.141 189.186C560.845 189.186 562.261 188.418 563.029 187.218L561.661 186.258C561.061 187.146 560.149 187.554 559.117 187.554C557.293 187.554 555.901 186.258 555.901 184.242C555.901 182.226 557.293 180.93 559.117 180.93C560.149 180.93 561.061 181.338 561.661 182.226L563.029 181.242C562.261 180.066 560.845 179.298 559.141 179.298C556.189 179.298 554.077 181.338 554.077 184.242C554.077 187.146 556.189 189.186 559.141 189.186ZM579.309 190.554L584.445 185.61C586.725 183.426 587.205 181.962 587.205 180.33C587.205 177.45 584.949 175.65 581.445 175.65C578.829 175.65 576.597 176.586 575.301 178.194L576.933 179.61C577.965 178.362 579.429 177.786 581.229 177.786C583.581 177.786 584.805 178.842 584.805 180.57C584.805 181.626 584.469 182.682 582.693 184.41L575.853 191.01V192.642H587.925V190.554H579.309ZM596.692 192.834C600.604 192.834 603.532 189.714 603.532 184.242C603.532 178.77 600.604 175.65 596.692 175.65C592.756 175.65 589.828 178.77 589.828 184.242C589.828 189.714 592.756 192.834 596.692 192.834ZM596.692 190.698C594.052 190.698 592.228 188.538 592.228 184.242C592.228 179.946 594.052 177.786 596.692 177.786C599.308 177.786 601.132 179.946 601.132 184.242C601.132 188.538 599.308 190.698 596.692 190.698ZM608.957 190.554L614.093 185.61C616.373 183.426 616.853 181.962 616.853 180.33C616.853 177.45 614.597 175.65 611.093 175.65C608.477 175.65 606.245 176.586 604.949 178.194L606.581 179.61C607.613 178.362 609.077 177.786 610.877 177.786C613.229 177.786 614.453 178.842 614.453 180.57C614.453 181.626 614.117 182.682 612.341 184.41L605.501 191.01V192.642H617.573V190.554H608.957ZM626.34 192.834C630.252 192.834 633.18 189.714 633.18 184.242C633.18 178.77 630.252 175.65 626.34 175.65C622.404 175.65 619.476 178.77 619.476 184.242C619.476 189.714 622.404 192.834 626.34 192.834ZM626.34 190.698C623.7 190.698 621.876 188.538 621.876 184.242C621.876 179.946 623.7 177.786 626.34 177.786C628.956 177.786 630.78 179.946 630.78 184.242C630.78 188.538 628.956 190.698 626.34 190.698ZM655.201 192.642H658.009L650.377 183.402L657.553 175.842H654.817L645.697 185.226V175.842H643.297V192.642H645.697V188.298L648.769 185.178L655.201 192.642ZM664.539 179.802C662.499 179.802 660.603 180.378 659.283 181.434L660.243 183.162C661.227 182.322 662.763 181.794 664.275 181.794C666.555 181.794 667.683 182.922 667.683 184.866V185.322H664.035C660.243 185.322 658.923 187.002 658.923 189.042C658.923 191.25 660.747 192.786 663.627 192.786C665.619 192.786 667.035 192.114 667.803 190.962V192.642H669.987V184.962C669.987 181.482 668.019 179.802 664.539 179.802ZM664.011 191.01C662.259 191.01 661.203 190.218 661.203 188.946C661.203 187.866 661.851 186.978 664.131 186.978H667.683V188.754C667.107 190.218 665.739 191.01 664.011 191.01ZM677.898 192.786C681.282 192.786 683.394 191.322 683.394 189.018C683.394 184.074 675.33 186.522 675.33 183.522C675.33 182.514 676.314 181.77 678.33 181.77C679.578 181.77 680.85 182.034 682.002 182.778L682.986 180.954C681.882 180.234 680.01 179.802 678.354 179.802C675.09 179.802 673.05 181.338 673.05 183.618C673.05 188.682 681.09 186.21 681.09 189.066C681.09 190.146 680.202 190.794 678.066 190.794C676.41 190.794 674.682 190.242 673.602 189.474L672.642 191.298C673.698 192.138 675.786 192.786 677.898 192.786ZM690.906 179.802C688.866 179.802 686.97 180.378 685.65 181.434L686.61 183.162C687.594 182.322 689.13 181.794 690.642 181.794C692.922 181.794 694.05 182.922 694.05 184.866V185.322H690.402C686.61 185.322 685.29 187.002 685.29 189.042C685.29 191.25 687.114 192.786 689.994 192.786C691.986 192.786 693.402 192.114 694.17 190.962V192.642H696.354V184.962C696.354 181.482 694.386 179.802 690.906 179.802ZM690.378 191.01C688.626 191.01 687.57 190.218 687.57 188.946C687.57 187.866 688.218 186.978 690.498 186.978H694.05V188.754C693.474 190.218 692.106 191.01 690.378 191.01ZM701.17 192.786C702.034 192.786 702.754 192.09 702.754 191.13C702.754 190.17 702.034 189.498 701.17 189.498C700.282 189.498 699.538 190.17 699.538 191.13C699.538 192.09 700.282 192.786 701.17 192.786ZM725.388 192.642H727.908L720.276 175.842H717.9L710.292 192.642H712.764L714.612 188.442H723.54L725.388 192.642ZM715.452 186.522L719.076 178.29L722.7 186.522H715.452ZM730.079 192.642H732.383V174.834H730.079V192.642ZM736.782 192.642H739.086V174.834H736.782V192.642ZM752.138 182.058V179.922H749.93V192.642H752.234V186.306C752.234 183.522 753.77 182.01 756.242 182.01C756.41 182.01 756.578 182.01 756.77 182.034V179.802C754.538 179.802 752.954 180.57 752.138 182.058ZM760.762 177.474C761.674 177.474 762.322 176.802 762.322 175.938C762.322 175.122 761.65 174.474 760.762 174.474C759.874 174.474 759.202 175.146 759.202 175.986C759.202 176.826 759.874 177.474 760.762 177.474ZM759.61 192.642H761.914V179.922H759.61V192.642ZM776.297 179.922V181.89C775.217 180.498 773.489 179.802 771.593 179.802C767.921 179.802 765.137 182.274 765.137 185.946C765.137 189.618 767.921 192.114 771.593 192.114C773.417 192.114 775.073 191.466 776.177 190.146V191.154C776.177 194.034 774.809 195.426 771.809 195.426C769.937 195.426 768.089 194.778 766.913 193.77L765.809 195.546C767.201 196.794 769.553 197.442 771.881 197.442C776.201 197.442 778.481 195.402 778.481 190.914V179.922H776.297ZM771.857 190.098C769.289 190.098 767.465 188.394 767.465 185.946C767.465 183.474 769.289 181.818 771.857 181.818C774.401 181.818 776.225 183.474 776.225 185.946C776.225 188.394 774.401 190.098 771.857 190.098ZM789.675 179.802C787.731 179.802 786.147 180.498 785.187 181.722V174.834H782.883V192.642H785.187V186.09C785.187 183.33 786.771 181.866 789.219 181.866C791.403 181.866 792.651 183.09 792.651 185.586V192.642H794.955V185.322C794.955 181.578 792.771 179.802 789.675 179.802ZM805.651 190.242C805.171 190.626 804.523 190.842 803.851 190.842C802.579 190.842 801.859 190.074 801.859 188.706V181.818H805.507V179.922H801.859V177.138H799.555V179.922H797.395V181.818H799.555V188.802C799.555 191.37 801.019 192.786 803.587 192.786C804.619 192.786 805.675 192.498 806.371 191.898L805.651 190.242ZM812.805 192.786C816.189 192.786 818.301 191.322 818.301 189.018C818.301 184.074 810.237 186.522 810.237 183.522C810.237 182.514 811.221 181.77 813.237 181.77C814.485 181.77 815.757 182.034 816.909 182.778L817.893 180.954C816.789 180.234 814.917 179.802 813.261 179.802C809.997 179.802 807.957 181.338 807.957 183.618C807.957 188.682 815.997 186.21 815.997 189.066C815.997 190.146 815.109 190.794 812.973 190.794C811.317 190.794 809.589 190.242 808.509 189.474L807.549 191.298C808.605 192.138 810.693 192.786 812.805 192.786ZM829.833 182.058V179.922H827.625V192.642H829.929V186.306C829.929 183.522 831.465 182.01 833.937 182.01C834.105 182.01 834.273 182.01 834.465 182.034V179.802C832.233 179.802 830.649 180.57 829.833 182.058ZM848.684 186.354C848.684 182.442 846.068 179.802 842.396 179.802C838.724 179.802 836.012 182.514 836.012 186.282C836.012 190.074 838.748 192.786 842.852 192.786C844.964 192.786 846.716 192.066 847.868 190.722L846.596 189.234C845.66 190.266 844.412 190.77 842.924 190.77C840.404 190.77 838.604 189.282 838.316 187.05H848.636C848.66 186.834 848.684 186.546 848.684 186.354ZM842.396 181.746C844.628 181.746 846.236 183.258 846.476 185.394H838.316C838.556 183.234 840.188 181.746 842.396 181.746ZM855.531 192.786C858.915 192.786 861.027 191.322 861.027 189.018C861.027 184.074 852.963 186.522 852.963 183.522C852.963 182.514 853.947 181.77 855.963 181.77C857.211 181.77 858.483 182.034 859.635 182.778L860.619 180.954C859.515 180.234 857.643 179.802 855.987 179.802C852.723 179.802 850.683 181.338 850.683 183.618C850.683 188.682 858.723 186.21 858.723 189.066C858.723 190.146 857.835 190.794 855.699 190.794C854.043 190.794 852.315 190.242 851.235 189.474L850.275 191.298C851.331 192.138 853.419 192.786 855.531 192.786ZM875.403 186.354C875.403 182.442 872.787 179.802 869.115 179.802C865.443 179.802 862.731 182.514 862.731 186.282C862.731 190.074 865.467 192.786 869.571 192.786C871.683 192.786 873.435 192.066 874.587 190.722L873.315 189.234C872.379 190.266 871.131 190.77 869.643 190.77C867.123 190.77 865.323 189.282 865.035 187.05H875.355C875.379 186.834 875.403 186.546 875.403 186.354ZM869.115 181.746C871.347 181.746 872.955 183.258 873.195 185.394H865.035C865.275 183.234 866.907 181.746 869.115 181.746ZM880.81 182.058V179.922H878.602V192.642H880.906V186.306C880.906 183.522 882.442 182.01 884.914 182.01C885.082 182.01 885.25 182.01 885.442 182.034V179.802C883.21 179.802 881.626 180.57 880.81 182.058ZM897.797 179.922L893.333 190.122L888.965 179.922H886.565L892.133 192.642H894.485L900.053 179.922H897.797ZM913.348 186.354C913.348 182.442 910.732 179.802 907.06 179.802C903.388 179.802 900.676 182.514 900.676 186.282C900.676 190.074 903.412 192.786 907.516 192.786C909.628 192.786 911.38 192.066 912.532 190.722L911.26 189.234C910.324 190.266 909.076 190.77 907.588 190.77C905.068 190.77 903.268 189.282 902.98 187.05H913.3C913.324 186.834 913.348 186.546 913.348 186.354ZM907.06 181.746C909.292 181.746 910.9 183.258 911.14 185.394H902.98C903.22 183.234 904.852 181.746 907.06 181.746ZM926.243 174.834V181.842C925.187 180.474 923.603 179.802 921.803 179.802C918.083 179.802 915.371 182.394 915.371 186.282C915.371 190.17 918.083 192.786 921.803 192.786C923.675 192.786 925.307 192.066 926.339 190.626V192.642H928.547V174.834H926.243ZM921.995 190.77C919.547 190.77 917.699 188.994 917.699 186.282C917.699 183.57 919.547 181.818 921.995 181.818C924.419 181.818 926.267 183.57 926.267 186.282C926.267 188.994 924.419 190.77 921.995 190.77Z" fill="white"/>
<rect width="375" height="209" transform="translate(553 249.642)" fill="black"/>
<path d="M691.644 335.74L685.128 342.404V351.754H680V315.642H685.128V335.848L704.571 315.642H710.447L695.17 331.871L711.515 351.754H705.532L691.644 335.74Z" fill="white"/>
<path d="M748.905 348.853L750.935 344.983C753.285 346.596 756.918 347.778 760.443 347.778C765.037 347.778 766.853 346.381 766.853 344.016C766.853 337.89 749.653 343.156 749.653 332.301C749.653 327.357 754.033 324.133 760.977 324.133C764.503 324.133 768.562 325.1 770.912 326.605L768.776 330.474C766.319 328.862 763.648 328.324 760.977 328.324C756.704 328.324 754.567 329.936 754.567 332.086C754.567 338.535 771.767 333.268 771.767 343.909C771.767 348.853 767.28 351.969 760.016 351.969C755.636 352.077 751.149 350.68 748.905 348.853Z" fill="white"/>
<path d="M802 335.203V351.754H797.299V348.1C795.697 350.572 792.599 351.969 788.326 351.969C782.13 351.969 778.284 348.637 778.284 343.908C778.284 339.502 781.061 335.955 789.18 335.955H796.979V334.988C796.979 330.796 794.522 328.432 789.715 328.432C786.51 328.432 783.198 329.614 781.061 331.334L779.031 327.572C781.809 325.315 785.869 324.025 790.249 324.025C797.834 324.133 802 327.787 802 335.203ZM797.086 343.371V339.502H789.501C784.587 339.502 783.198 341.436 783.198 343.693C783.198 346.38 785.441 348.1 789.18 348.1C792.919 348.208 795.911 346.595 797.086 343.371Z" fill="white"/>
<path d="M733.095 344.554V351.862L736.193 350.035V342.727L733.095 344.554Z" fill="white"/>
<path d="M741.641 335.633L728.928 328.217L721.877 324.133L714.933 336.278L715.04 347.67L727.646 355.086L728.928 354.334V343.586L734.59 333.591L740.359 336.923V347.67L741.641 346.918V335.633Z" fill="white"/>
<path d="M697.685 379.678C696.901 379.678 696.185 379.49 695.537 379.114C694.897 378.738 694.389 378.226 694.013 377.578C693.645 376.93 693.461 376.218 693.461 375.442C693.461 374.666 693.645 373.954 694.013 373.306C694.389 372.658 694.901 372.146 695.549 371.77C696.197 371.394 696.917 371.206 697.709 371.206C698.501 371.206 699.217 371.39 699.857 371.758C700.505 372.126 701.013 372.634 701.381 373.282C701.749 373.922 701.933 374.634 701.933 375.418C701.933 376.202 701.745 376.922 701.369 377.578C700.993 378.226 700.481 378.738 699.833 379.114C699.185 379.49 698.469 379.678 697.685 379.678ZM697.685 379.138C698.373 379.138 698.997 378.974 699.557 378.646C700.117 378.318 700.557 377.87 700.877 377.302C701.205 376.734 701.369 376.106 701.369 375.418C701.369 374.73 701.209 374.106 700.889 373.546C700.577 372.986 700.141 372.546 699.581 372.226C699.029 371.906 698.405 371.746 697.709 371.746C697.021 371.746 696.393 371.91 695.825 372.238C695.265 372.566 694.825 373.014 694.505 373.582C694.185 374.142 694.025 374.762 694.025 375.442C694.025 376.122 694.185 376.746 694.505 377.314C694.825 377.874 695.265 378.318 695.825 378.646C696.385 378.974 697.005 379.138 697.685 379.138ZM697.817 377.914C697.329 377.914 696.893 377.81 696.509 377.602C696.125 377.394 695.825 377.102 695.609 376.726C695.393 376.35 695.285 375.922 695.285 375.442C695.285 374.962 695.393 374.534 695.609 374.158C695.825 373.782 696.125 373.49 696.509 373.282C696.893 373.074 697.329 372.97 697.817 372.97C698.233 372.97 698.613 373.058 698.957 373.234C699.301 373.41 699.569 373.646 699.761 373.942L699.077 374.434C698.789 374.002 698.365 373.786 697.805 373.786C697.341 373.786 696.957 373.938 696.653 374.242C696.349 374.546 696.197 374.946 696.197 375.442C696.197 375.938 696.349 376.338 696.653 376.642C696.957 376.946 697.341 377.098 697.805 377.098C698.365 377.098 698.789 376.882 699.077 376.45L699.761 376.93C699.569 377.234 699.301 377.474 698.957 377.65C698.613 377.826 698.233 377.914 697.817 377.914ZM712.209 378.598V379.642H706.173V378.826L709.593 375.526C710.009 375.126 710.289 374.782 710.433 374.494C710.577 374.198 710.649 373.902 710.649 373.606C710.649 373.166 710.493 372.826 710.181 372.586C709.877 372.338 709.437 372.214 708.861 372.214C707.933 372.214 707.217 372.518 706.713 373.126L705.897 372.418C706.225 372.018 706.653 371.706 707.181 371.482C707.717 371.258 708.313 371.146 708.969 371.146C709.849 371.146 710.549 371.358 711.069 371.782C711.589 372.198 711.849 372.766 711.849 373.486C711.849 373.934 711.753 374.358 711.561 374.758C711.369 375.158 711.005 375.614 710.469 376.126L707.901 378.598H712.209ZM716.592 379.738C715.928 379.738 715.336 379.57 714.816 379.234C714.304 378.89 713.9 378.394 713.604 377.746C713.308 377.098 713.16 376.33 713.16 375.442C713.16 374.554 713.308 373.786 713.604 373.138C713.9 372.49 714.304 371.998 714.816 371.662C715.336 371.318 715.928 371.146 716.592 371.146C717.248 371.146 717.832 371.318 718.344 371.662C718.864 371.998 719.272 372.49 719.568 373.138C719.864 373.786 720.012 374.554 720.012 375.442C720.012 376.33 719.864 377.098 719.568 377.746C719.272 378.394 718.864 378.89 718.344 379.234C717.832 379.57 717.248 379.738 716.592 379.738ZM716.592 378.67C717.264 378.67 717.8 378.394 718.2 377.842C718.608 377.29 718.812 376.49 718.812 375.442C718.812 374.394 718.608 373.594 718.2 373.042C717.8 372.49 717.264 372.214 716.592 372.214C715.912 372.214 715.368 372.49 714.96 373.042C714.56 373.594 714.36 374.394 714.36 375.442C714.36 376.49 714.56 377.29 714.96 377.842C715.368 378.394 715.912 378.67 716.592 378.67ZM727.033 378.598V379.642H720.997V378.826L724.417 375.526C724.833 375.126 725.113 374.782 725.257 374.494C725.401 374.198 725.473 373.902 725.473 373.606C725.473 373.166 725.317 372.826 725.005 372.586C724.701 372.338 724.261 372.214 723.685 372.214C722.757 372.214 722.041 372.518 721.537 373.126L720.721 372.418C721.049 372.018 721.477 371.706 722.005 371.482C722.541 371.258 723.137 371.146 723.793 371.146C724.673 371.146 725.373 371.358 725.893 371.782C726.413 372.198 726.673 372.766 726.673 373.486C726.673 373.934 726.577 374.358 726.385 374.758C726.193 375.158 725.829 375.614 725.293 376.126L722.725 378.598H727.033ZM731.416 379.738C730.752 379.738 730.16 379.57 729.64 379.234C729.128 378.89 728.724 378.394 728.428 377.746C728.132 377.098 727.984 376.33 727.984 375.442C727.984 374.554 728.132 373.786 728.428 373.138C728.724 372.49 729.128 371.998 729.64 371.662C730.16 371.318 730.752 371.146 731.416 371.146C732.072 371.146 732.656 371.318 733.168 371.662C733.688 371.998 734.096 372.49 734.392 373.138C734.688 373.786 734.836 374.554 734.836 375.442C734.836 376.33 734.688 377.098 734.392 377.746C734.096 378.394 733.688 378.89 733.168 379.234C732.656 379.57 732.072 379.738 731.416 379.738ZM731.416 378.67C732.088 378.67 732.624 378.394 733.024 377.842C733.432 377.29 733.636 376.49 733.636 375.442C733.636 374.394 733.432 373.594 733.024 373.042C732.624 372.49 732.088 372.214 731.416 372.214C730.736 372.214 730.192 372.49 729.784 373.042C729.384 373.594 729.184 374.394 729.184 375.442C729.184 376.49 729.384 377.29 729.784 377.842C730.192 378.394 730.736 378.67 731.416 378.67ZM742.631 375.91L741.095 377.47V379.642H739.895V371.242H741.095V375.934L745.655 371.242H747.023L743.435 375.022L747.251 379.642H745.847L742.631 375.91ZM750.515 373.222C751.395 373.222 752.067 373.438 752.531 373.87C753.003 374.302 753.239 374.946 753.239 375.802V379.642H752.147V378.802C751.955 379.098 751.679 379.326 751.319 379.486C750.967 379.638 750.547 379.714 750.059 379.714C749.347 379.714 748.775 379.542 748.343 379.198C747.919 378.854 747.707 378.402 747.707 377.842C747.707 377.282 747.911 376.834 748.319 376.498C748.727 376.154 749.375 375.982 750.263 375.982H752.087V375.754C752.087 375.258 751.943 374.878 751.655 374.614C751.367 374.35 750.943 374.218 750.383 374.218C750.007 374.218 749.639 374.282 749.279 374.41C748.919 374.53 748.615 374.694 748.367 374.902L747.887 374.038C748.215 373.774 748.607 373.574 749.063 373.438C749.519 373.294 750.003 373.222 750.515 373.222ZM750.251 378.826C750.691 378.826 751.071 378.73 751.391 378.538C751.711 378.338 751.943 378.058 752.087 377.698V376.81H750.311C749.335 376.81 748.847 377.138 748.847 377.794C748.847 378.114 748.971 378.366 749.219 378.55C749.467 378.734 749.811 378.826 750.251 378.826ZM757.195 379.714C756.675 379.714 756.175 379.646 755.695 379.51C755.215 379.366 754.839 379.186 754.567 378.97L755.047 378.058C755.327 378.258 755.667 378.418 756.067 378.538C756.467 378.658 756.871 378.718 757.279 378.718C758.287 378.718 758.791 378.43 758.791 377.854C758.791 377.662 758.723 377.51 758.587 377.398C758.451 377.286 758.279 377.206 758.071 377.158C757.871 377.102 757.583 377.042 757.207 376.978C756.695 376.898 756.275 376.806 755.947 376.702C755.627 376.598 755.351 376.422 755.119 376.174C754.887 375.926 754.771 375.578 754.771 375.13C754.771 374.554 755.011 374.094 755.491 373.75C755.971 373.398 756.615 373.222 757.423 373.222C757.847 373.222 758.271 373.274 758.695 373.378C759.119 373.482 759.467 373.622 759.739 373.798L759.247 374.71C758.727 374.374 758.115 374.206 757.411 374.206C756.923 374.206 756.551 374.286 756.295 374.446C756.039 374.606 755.911 374.818 755.911 375.082C755.911 375.29 755.983 375.454 756.127 375.574C756.271 375.694 756.447 375.782 756.655 375.838C756.871 375.894 757.171 375.958 757.555 376.03C758.067 376.118 758.479 376.214 758.791 376.318C759.111 376.414 759.383 376.582 759.607 376.822C759.831 377.062 759.943 377.398 759.943 377.83C759.943 378.406 759.695 378.866 759.199 379.21C758.711 379.546 758.043 379.714 757.195 379.714ZM763.699 373.222C764.579 373.222 765.251 373.438 765.715 373.87C766.187 374.302 766.423 374.946 766.423 375.802V379.642H765.331V378.802C765.139 379.098 764.863 379.326 764.503 379.486C764.151 379.638 763.731 379.714 763.243 379.714C762.531 379.714 761.959 379.542 761.527 379.198C761.103 378.854 760.891 378.402 760.891 377.842C760.891 377.282 761.095 376.834 761.503 376.498C761.911 376.154 762.559 375.982 763.447 375.982H765.271V375.754C765.271 375.258 765.127 374.878 764.839 374.614C764.551 374.35 764.127 374.218 763.567 374.218C763.191 374.218 762.823 374.282 762.463 374.41C762.103 374.53 761.799 374.694 761.551 374.902L761.071 374.038C761.399 373.774 761.791 373.574 762.247 373.438C762.703 373.294 763.187 373.222 763.699 373.222ZM763.435 378.826C763.875 378.826 764.255 378.73 764.575 378.538C764.895 378.338 765.127 378.058 765.271 377.698V376.81H763.495C762.519 376.81 762.031 377.138 762.031 377.794C762.031 378.114 762.155 378.366 762.403 378.55C762.651 378.734 762.995 378.826 763.435 378.826ZM768.831 379.714C768.607 379.714 768.415 379.638 768.255 379.486C768.095 379.326 768.015 379.126 768.015 378.886C768.015 378.654 768.095 378.462 768.255 378.31C768.415 378.15 768.607 378.07 768.831 378.07C769.055 378.07 769.243 378.146 769.395 378.298C769.547 378.45 769.623 378.646 769.623 378.886C769.623 379.126 769.543 379.326 769.383 379.486C769.231 379.638 769.047 379.714 768.831 379.714ZM780.016 377.542H775.552L774.628 379.642H773.392L777.196 371.242H778.384L782.2 379.642H780.94L780.016 377.542ZM779.596 376.582L777.784 372.466L775.972 376.582H779.596ZM783.285 370.738H784.437V379.642H783.285V370.738ZM786.637 370.738H787.789V379.642H786.637V370.738ZM697.342 391.35C697.542 390.982 697.838 390.702 698.23 390.51C698.622 390.318 699.098 390.222 699.658 390.222V391.338C699.594 391.33 699.506 391.326 699.394 391.326C698.77 391.326 698.278 391.514 697.918 391.89C697.566 392.258 697.39 392.786 697.39 393.474V396.642H696.238V390.282H697.342V391.35ZM701.078 390.282H702.23V396.642H701.078V390.282ZM701.654 389.058C701.43 389.058 701.242 388.986 701.09 388.842C700.946 388.698 700.874 388.522 700.874 388.314C700.874 388.106 700.946 387.93 701.09 387.786C701.242 387.634 701.43 387.558 701.654 387.558C701.878 387.558 702.062 387.63 702.206 387.774C702.358 387.91 702.434 388.082 702.434 388.29C702.434 388.506 702.358 388.69 702.206 388.842C702.062 388.986 701.878 389.058 701.654 389.058ZM710.514 390.282V395.778C710.514 396.89 710.238 397.71 709.686 398.238C709.134 398.774 708.31 399.042 707.214 399.042C706.614 399.042 706.042 398.958 705.498 398.79C704.954 398.63 704.514 398.398 704.178 398.094L704.73 397.206C705.026 397.462 705.39 397.662 705.822 397.806C706.262 397.958 706.714 398.034 707.178 398.034C707.922 398.034 708.47 397.858 708.822 397.506C709.182 397.154 709.362 396.618 709.362 395.898V395.394C709.09 395.722 708.754 395.97 708.354 396.138C707.962 396.298 707.534 396.378 707.07 396.378C706.462 396.378 705.91 396.25 705.414 395.994C704.926 395.73 704.542 395.366 704.262 394.902C703.982 394.43 703.842 393.894 703.842 393.294C703.842 392.694 703.982 392.162 704.262 391.698C704.542 391.226 704.926 390.862 705.414 390.606C705.91 390.35 706.462 390.222 707.07 390.222C707.55 390.222 707.994 390.31 708.402 390.486C708.818 390.662 709.158 390.922 709.422 391.266V390.282H710.514ZM707.202 395.37C707.618 395.37 707.99 395.282 708.318 395.106C708.654 394.93 708.914 394.686 709.098 394.374C709.29 394.054 709.386 393.694 709.386 393.294C709.386 392.678 709.182 392.182 708.774 391.806C708.366 391.422 707.842 391.23 707.202 391.23C706.554 391.23 706.026 391.422 705.618 391.806C705.21 392.182 705.006 392.678 705.006 393.294C705.006 393.694 705.098 394.054 705.282 394.374C705.474 394.686 705.734 394.93 706.062 395.106C706.398 395.282 706.778 395.37 707.202 395.37ZM716.111 390.222C716.919 390.222 717.559 390.458 718.031 390.93C718.511 391.394 718.751 392.078 718.751 392.982V396.642H717.599V393.114C717.599 392.498 717.451 392.034 717.155 391.722C716.859 391.41 716.435 391.254 715.883 391.254C715.259 391.254 714.767 391.438 714.407 391.806C714.047 392.166 713.867 392.686 713.867 393.366V396.642H712.715V387.738H713.867V391.182C714.107 390.878 714.419 390.642 714.803 390.474C715.195 390.306 715.631 390.222 716.111 390.222ZM724.459 396.27C724.291 396.414 724.083 396.526 723.835 396.606C723.587 396.678 723.331 396.714 723.067 396.714C722.427 396.714 721.931 396.542 721.579 396.198C721.227 395.854 721.051 395.362 721.051 394.722V391.23H719.971V390.282H721.051V388.89H722.203V390.282H724.027V391.23H722.203V394.674C722.203 395.018 722.287 395.282 722.455 395.466C722.631 395.65 722.879 395.742 723.199 395.742C723.551 395.742 723.851 395.642 724.099 395.442L724.459 396.27ZM727.676 396.714C727.156 396.714 726.656 396.646 726.176 396.51C725.696 396.366 725.32 396.186 725.048 395.97L725.528 395.058C725.808 395.258 726.148 395.418 726.548 395.538C726.948 395.658 727.352 395.718 727.76 395.718C728.768 395.718 729.272 395.43 729.272 394.854C729.272 394.662 729.204 394.51 729.068 394.398C728.932 394.286 728.76 394.206 728.552 394.158C728.352 394.102 728.064 394.042 727.688 393.978C727.176 393.898 726.756 393.806 726.428 393.702C726.108 393.598 725.832 393.422 725.6 393.174C725.368 392.926 725.252 392.578 725.252 392.13C725.252 391.554 725.492 391.094 725.972 390.75C726.452 390.398 727.096 390.222 727.904 390.222C728.328 390.222 728.752 390.274 729.176 390.378C729.6 390.482 729.948 390.622 730.22 390.798L729.728 391.71C729.208 391.374 728.596 391.206 727.892 391.206C727.404 391.206 727.032 391.286 726.776 391.446C726.52 391.606 726.392 391.818 726.392 392.082C726.392 392.29 726.464 392.454 726.608 392.574C726.752 392.694 726.928 392.782 727.136 392.838C727.352 392.894 727.652 392.958 728.036 393.03C728.548 393.118 728.96 393.214 729.272 393.318C729.592 393.414 729.864 393.582 730.088 393.822C730.312 394.062 730.424 394.398 730.424 394.83C730.424 395.406 730.176 395.866 729.68 396.21C729.192 396.546 728.524 396.714 727.676 396.714ZM736.19 391.35C736.39 390.982 736.686 390.702 737.078 390.51C737.47 390.318 737.946 390.222 738.506 390.222V391.338C738.442 391.33 738.354 391.326 738.242 391.326C737.618 391.326 737.126 391.514 736.766 391.89C736.414 392.258 736.238 392.786 736.238 393.474V396.642H735.086V390.282H736.19V391.35ZM745.615 393.498C745.615 393.586 745.607 393.702 745.591 393.846H740.431C740.503 394.406 740.747 394.858 741.163 395.202C741.587 395.538 742.111 395.706 742.735 395.706C743.495 395.706 744.107 395.45 744.571 394.938L745.207 395.682C744.919 396.018 744.559 396.274 744.127 396.45C743.703 396.626 743.227 396.714 742.699 396.714C742.027 396.714 741.431 396.578 740.911 396.306C740.391 396.026 739.987 395.638 739.699 395.142C739.419 394.646 739.279 394.086 739.279 393.462C739.279 392.846 739.415 392.29 739.687 391.794C739.967 391.298 740.347 390.914 740.827 390.642C741.315 390.362 741.863 390.222 742.471 390.222C743.079 390.222 743.619 390.362 744.091 390.642C744.571 390.914 744.943 391.298 745.207 391.794C745.479 392.29 745.615 392.858 745.615 393.498ZM742.471 391.194C741.919 391.194 741.455 391.362 741.079 391.698C740.711 392.034 740.495 392.474 740.431 393.018H744.511C744.447 392.482 744.227 392.046 743.851 391.71C743.483 391.366 743.023 391.194 742.471 391.194ZM749.039 396.714C748.519 396.714 748.019 396.646 747.539 396.51C747.059 396.366 746.683 396.186 746.411 395.97L746.891 395.058C747.171 395.258 747.511 395.418 747.911 395.538C748.311 395.658 748.715 395.718 749.123 395.718C750.131 395.718 750.635 395.43 750.635 394.854C750.635 394.662 750.567 394.51 750.431 394.398C750.295 394.286 750.123 394.206 749.915 394.158C749.715 394.102 749.427 394.042 749.051 393.978C748.539 393.898 748.119 393.806 747.791 393.702C747.471 393.598 747.195 393.422 746.963 393.174C746.731 392.926 746.615 392.578 746.615 392.13C746.615 391.554 746.855 391.094 747.335 390.75C747.815 390.398 748.459 390.222 749.267 390.222C749.691 390.222 750.115 390.274 750.539 390.378C750.963 390.482 751.311 390.622 751.583 390.798L751.091 391.71C750.571 391.374 749.959 391.206 749.255 391.206C748.767 391.206 748.395 391.286 748.139 391.446C747.883 391.606 747.755 391.818 747.755 392.082C747.755 392.29 747.827 392.454 747.971 392.574C748.115 392.694 748.291 392.782 748.499 392.838C748.715 392.894 749.015 392.958 749.399 393.03C749.911 393.118 750.323 393.214 750.635 393.318C750.955 393.414 751.227 393.582 751.451 393.822C751.675 394.062 751.787 394.398 751.787 394.83C751.787 395.406 751.539 395.866 751.043 396.21C750.555 396.546 749.887 396.714 749.039 396.714ZM758.975 393.498C758.975 393.586 758.967 393.702 758.951 393.846H753.791C753.863 394.406 754.107 394.858 754.523 395.202C754.947 395.538 755.471 395.706 756.095 395.706C756.855 395.706 757.467 395.45 757.931 394.938L758.567 395.682C758.279 396.018 757.919 396.274 757.487 396.45C757.063 396.626 756.587 396.714 756.059 396.714C755.387 396.714 754.791 396.578 754.271 396.306C753.751 396.026 753.347 395.638 753.059 395.142C752.779 394.646 752.639 394.086 752.639 393.462C752.639 392.846 752.775 392.29 753.047 391.794C753.327 391.298 753.707 390.914 754.187 390.642C754.675 390.362 755.223 390.222 755.831 390.222C756.439 390.222 756.979 390.362 757.451 390.642C757.931 390.914 758.303 391.298 758.567 391.794C758.839 392.29 758.975 392.858 758.975 393.498ZM755.831 391.194C755.279 391.194 754.815 391.362 754.439 391.698C754.071 392.034 753.855 392.474 753.791 393.018H757.871C757.807 392.482 757.587 392.046 757.211 391.71C756.843 391.366 756.383 391.194 755.831 391.194ZM761.678 391.35C761.878 390.982 762.174 390.702 762.566 390.51C762.958 390.318 763.434 390.222 763.994 390.222V391.338C763.93 391.33 763.842 391.326 763.73 391.326C763.106 391.326 762.614 391.514 762.254 391.89C761.902 392.258 761.726 392.786 761.726 393.474V396.642H760.574V390.282H761.678V391.35ZM771.3 390.282L768.516 396.642H767.34L764.556 390.282H765.756L767.94 395.382L770.172 390.282H771.3ZM777.947 393.498C777.947 393.586 777.939 393.702 777.923 393.846H772.763C772.835 394.406 773.079 394.858 773.495 395.202C773.919 395.538 774.443 395.706 775.067 395.706C775.827 395.706 776.439 395.45 776.903 394.938L777.539 395.682C777.251 396.018 776.891 396.274 776.459 396.45C776.035 396.626 775.559 396.714 775.031 396.714C774.359 396.714 773.763 396.578 773.243 396.306C772.723 396.026 772.319 395.638 772.031 395.142C771.751 394.646 771.611 394.086 771.611 393.462C771.611 392.846 771.747 392.29 772.019 391.794C772.299 391.298 772.679 390.914 773.159 390.642C773.647 390.362 774.195 390.222 774.803 390.222C775.411 390.222 775.951 390.362 776.423 390.642C776.903 390.914 777.275 391.298 777.539 391.794C777.811 392.29 777.947 392.858 777.947 393.498ZM774.803 391.194C774.251 391.194 773.787 391.362 773.411 391.698C773.043 392.034 772.827 392.474 772.763 393.018H776.843C776.779 392.482 776.559 392.046 776.183 391.71C775.815 391.366 775.355 391.194 774.803 391.194ZM785.547 387.738V396.642H784.443V395.634C784.187 395.986 783.863 396.254 783.471 396.438C783.079 396.622 782.647 396.714 782.175 396.714C781.559 396.714 781.007 396.578 780.519 396.306C780.031 396.034 779.647 395.654 779.367 395.166C779.095 394.67 778.959 394.102 778.959 393.462C778.959 392.822 779.095 392.258 779.367 391.77C779.647 391.282 780.031 390.902 780.519 390.63C781.007 390.358 781.559 390.222 782.175 390.222C782.631 390.222 783.051 390.31 783.435 390.486C783.819 390.654 784.139 390.906 784.395 391.242V387.738H785.547ZM782.271 395.706C782.671 395.706 783.035 395.614 783.363 395.43C783.691 395.238 783.947 394.974 784.131 394.638C784.315 394.294 784.407 393.902 784.407 393.462C784.407 393.022 784.315 392.634 784.131 392.298C783.947 391.954 783.691 391.69 783.363 391.506C783.035 391.322 782.671 391.23 782.271 391.23C781.863 391.23 781.495 391.322 781.167 391.506C780.847 391.69 780.591 391.954 780.399 392.298C780.215 392.634 780.123 393.022 780.123 393.462C780.123 393.902 780.215 394.294 780.399 394.638C780.591 394.974 780.847 395.238 781.167 395.43C781.495 395.614 781.863 395.706 782.271 395.706Z" fill="white"/>
</svg>
